<mxfile host="Electron" agent="Mozilla/5.0 (Macintosh; Intel Mac OS X 10_15_7) AppleWebKit/537.36 (KHTML, like Gecko) draw.io/25.0.2 Chrome/128.0.6613.186 Electron/32.2.5 Safari/537.36" version="25.0.2">
  <diagram id="6a731a19-8d31-9384-78a2-239565b7b9f0" name="Page-1">
    <mxGraphModel dx="1430" dy="1025" grid="1" gridSize="10" guides="1" tooltips="1" connect="1" arrows="1" fold="1" page="1" pageScale="1" pageWidth="1169" pageHeight="827" background="none" math="0" shadow="0">
      <root>
        <mxCell id="0" />
        <mxCell id="1" parent="0" />
        <mxCell id="1745" value="" style="edgeStyle=none;rounded=0;jumpStyle=none;html=1;shadow=0;labelBackgroundColor=none;startArrow=none;startFill=0;endArrow=classic;endFill=1;jettySize=auto;orthogonalLoop=1;strokeColor=#2F5B7C;strokeWidth=3;fontFamily=Helvetica;fontSize=16;fontColor=#23445D;spacing=5;" parent="1" source="1749" target="1764" edge="1">
          <mxGeometry relative="1" as="geometry" />
        </mxCell>
        <mxCell id="1746" value="" style="edgeStyle=none;rounded=0;jumpStyle=none;html=1;shadow=0;labelBackgroundColor=none;startArrow=none;startFill=0;endArrow=classic;endFill=1;jettySize=auto;orthogonalLoop=1;strokeColor=#2F5B7C;strokeWidth=3;fontFamily=Helvetica;fontSize=16;fontColor=#23445D;spacing=5;" parent="1" source="1749" target="1771" edge="1">
          <mxGeometry relative="1" as="geometry" />
        </mxCell>
        <mxCell id="1747" value="" style="edgeStyle=none;rounded=0;jumpStyle=none;html=1;shadow=0;labelBackgroundColor=none;startArrow=none;startFill=0;endArrow=classic;endFill=1;jettySize=auto;orthogonalLoop=1;strokeColor=#2F5B7C;strokeWidth=3;fontFamily=Helvetica;fontSize=16;fontColor=#23445D;spacing=5;" parent="1" source="1749" target="1760" edge="1">
          <mxGeometry relative="1" as="geometry" />
        </mxCell>
        <mxCell id="1748" value="" style="edgeStyle=none;rounded=0;jumpStyle=none;html=1;shadow=0;labelBackgroundColor=none;startArrow=none;startFill=0;endArrow=classic;endFill=1;jettySize=auto;orthogonalLoop=1;strokeColor=#2F5B7C;strokeWidth=3;fontFamily=Helvetica;fontSize=16;fontColor=#23445D;spacing=5;" parent="1" source="1749" target="1753" edge="1">
          <mxGeometry relative="1" as="geometry" />
        </mxCell>
        <mxCell id="1749" value="Безопасность данных" style="rounded=1;whiteSpace=wrap;html=1;shadow=0;labelBackgroundColor=none;strokeColor=none;strokeWidth=3;fillColor=#2F5B7C;fontFamily=Helvetica;fontSize=16;fontColor=#FFFFFF;align=center;fontStyle=1;spacing=5;arcSize=7;perimeterSpacing=2;" parent="1" vertex="1">
          <mxGeometry x="495" y="380.5" width="150" height="70" as="geometry" />
        </mxCell>
        <mxCell id="1750" value="" style="edgeStyle=none;rounded=1;jumpStyle=none;html=1;shadow=0;labelBackgroundColor=none;startArrow=none;startFill=0;jettySize=auto;orthogonalLoop=1;strokeColor=#E85642;strokeWidth=3;fontFamily=Helvetica;fontSize=14;fontColor=#FFFFFF;spacing=5;fontStyle=1;fillColor=#b0e3e6;" parent="1" source="1753" target="1756" edge="1">
          <mxGeometry relative="1" as="geometry" />
        </mxCell>
        <mxCell id="1751" value="" style="edgeStyle=none;rounded=1;jumpStyle=none;html=1;shadow=0;labelBackgroundColor=none;startArrow=none;startFill=0;jettySize=auto;orthogonalLoop=1;strokeColor=#E85642;strokeWidth=3;fontFamily=Helvetica;fontSize=14;fontColor=#FFFFFF;spacing=5;fontStyle=1;fillColor=#b0e3e6;" parent="1" source="1753" target="1755" edge="1">
          <mxGeometry relative="1" as="geometry" />
        </mxCell>
        <mxCell id="1752" value="" style="edgeStyle=none;rounded=1;jumpStyle=none;html=1;shadow=0;labelBackgroundColor=none;startArrow=none;startFill=0;jettySize=auto;orthogonalLoop=1;strokeColor=#E85642;strokeWidth=3;fontFamily=Helvetica;fontSize=14;fontColor=#FFFFFF;spacing=5;fontStyle=1;fillColor=#b0e3e6;" parent="1" source="1753" target="1754" edge="1">
          <mxGeometry relative="1" as="geometry" />
        </mxCell>
        <mxCell id="1753" value="Секретные данные" style="rounded=1;whiteSpace=wrap;html=1;shadow=0;labelBackgroundColor=none;strokeColor=none;strokeWidth=3;fillColor=#e85642;fontFamily=Helvetica;fontSize=14;fontColor=#FFFFFF;align=center;spacing=5;fontStyle=1;arcSize=7;perimeterSpacing=2;" parent="1" vertex="1">
          <mxGeometry x="215" y="385.5" width="150" height="60" as="geometry" />
        </mxCell>
        <mxCell id="RJBb2I7nrMehmGzAcUSe-1791" style="edgeStyle=orthogonalEdgeStyle;rounded=1;orthogonalLoop=1;jettySize=auto;html=1;entryX=0.992;entryY=0.792;entryDx=0;entryDy=0;shadow=0;strokeColor=#E85642;strokeWidth=3;align=center;verticalAlign=middle;spacing=5;fontFamily=Helvetica;fontSize=14;fontColor=#FFFFFF;fontStyle=1;labelBackgroundColor=none;jumpStyle=none;startArrow=none;startFill=0;endArrow=classic;fillColor=#b0e3e6;entryPerimeter=0;" edge="1" parent="1" source="1754" target="RJBb2I7nrMehmGzAcUSe-1790">
          <mxGeometry relative="1" as="geometry" />
        </mxCell>
        <mxCell id="1754" value="Ключи шифрования" style="rounded=1;whiteSpace=wrap;html=1;shadow=0;labelBackgroundColor=none;strokeColor=none;strokeWidth=3;fillColor=#f08e81;fontFamily=Helvetica;fontSize=14;fontColor=#FFFFFF;align=center;spacing=5;fontStyle=0;arcSize=7;perimeterSpacing=2;" parent="1" vertex="1">
          <mxGeometry x="65" y="504.5" width="150" height="60" as="geometry" />
        </mxCell>
        <mxCell id="RJBb2I7nrMehmGzAcUSe-1792" style="edgeStyle=orthogonalEdgeStyle;shape=connector;rounded=1;jumpStyle=none;orthogonalLoop=1;jettySize=auto;html=1;entryX=1;entryY=0.5;entryDx=0;entryDy=0;shadow=0;strokeColor=#E85642;strokeWidth=3;align=center;verticalAlign=middle;spacing=5;fontFamily=Helvetica;fontSize=14;fontColor=#FFFFFF;fontStyle=1;labelBackgroundColor=none;startArrow=none;startFill=0;endArrow=classic;fillColor=#b0e3e6;" edge="1" parent="1" source="1755" target="RJBb2I7nrMehmGzAcUSe-1790">
          <mxGeometry relative="1" as="geometry" />
        </mxCell>
        <mxCell id="1755" value="Реквизиты доступа" style="rounded=1;whiteSpace=wrap;html=1;shadow=0;labelBackgroundColor=none;strokeColor=none;strokeWidth=3;fillColor=#f08e81;fontFamily=Helvetica;fontSize=14;fontColor=#FFFFFF;align=center;spacing=5;fontStyle=0;arcSize=7;perimeterSpacing=2;" parent="1" vertex="1">
          <mxGeometry x="14" y="385.5" width="150" height="60" as="geometry" />
        </mxCell>
        <mxCell id="RJBb2I7nrMehmGzAcUSe-1793" style="edgeStyle=orthogonalEdgeStyle;shape=connector;rounded=1;jumpStyle=none;orthogonalLoop=1;jettySize=auto;html=1;entryX=0.996;entryY=0.168;entryDx=0;entryDy=0;shadow=0;strokeColor=#E85642;strokeWidth=3;align=center;verticalAlign=middle;spacing=5;fontFamily=Helvetica;fontSize=14;fontColor=#FFFFFF;fontStyle=1;labelBackgroundColor=none;startArrow=none;startFill=0;endArrow=classic;fillColor=#b0e3e6;entryPerimeter=0;" edge="1" parent="1" source="1756" target="RJBb2I7nrMehmGzAcUSe-1790">
          <mxGeometry relative="1" as="geometry" />
        </mxCell>
        <mxCell id="1756" value="Стратегия развития" style="rounded=1;whiteSpace=wrap;html=1;shadow=0;labelBackgroundColor=none;strokeColor=none;strokeWidth=3;fillColor=#f08e81;fontFamily=Helvetica;fontSize=14;fontColor=#FFFFFF;align=center;spacing=5;fontStyle=0;arcSize=7;perimeterSpacing=2;" parent="1" vertex="1">
          <mxGeometry x="65" y="254.5" width="150" height="60" as="geometry" />
        </mxCell>
        <mxCell id="1757" value="" style="edgeStyle=none;rounded=0;jumpStyle=none;html=1;shadow=0;labelBackgroundColor=none;startArrow=none;startFill=0;endArrow=classic;endFill=1;jettySize=auto;orthogonalLoop=1;strokeColor=#1699D3;strokeWidth=3;fontFamily=Helvetica;fontSize=14;fontColor=#FFFFFF;spacing=5;" parent="1" source="1760" target="1763" edge="1">
          <mxGeometry relative="1" as="geometry" />
        </mxCell>
        <mxCell id="1758" value="" style="edgeStyle=none;rounded=0;jumpStyle=none;html=1;shadow=0;labelBackgroundColor=none;startArrow=none;startFill=0;endArrow=classic;endFill=1;jettySize=auto;orthogonalLoop=1;strokeColor=#1699D3;strokeWidth=3;fontFamily=Helvetica;fontSize=14;fontColor=#FFFFFF;spacing=5;" parent="1" source="1760" target="1762" edge="1">
          <mxGeometry relative="1" as="geometry" />
        </mxCell>
        <mxCell id="1760" value="Внутренние данные" style="rounded=1;whiteSpace=wrap;html=1;shadow=0;labelBackgroundColor=none;strokeColor=none;strokeWidth=3;fillColor=#1699d3;fontFamily=Helvetica;fontSize=14;fontColor=#FFFFFF;align=center;spacing=5;fontStyle=1;arcSize=7;perimeterSpacing=2;" parent="1" vertex="1">
          <mxGeometry x="495" y="570.5" width="150" height="60" as="geometry" />
        </mxCell>
        <mxCell id="RJBb2I7nrMehmGzAcUSe-1788" style="edgeStyle=orthogonalEdgeStyle;rounded=1;orthogonalLoop=1;jettySize=auto;html=1;entryX=0.75;entryY=0;entryDx=0;entryDy=0;shadow=0;strokeColor=#1699D3;strokeWidth=3;align=center;verticalAlign=middle;spacing=5;fontFamily=Helvetica;fontSize=14;fontColor=#FFFFFF;labelBackgroundColor=none;jumpStyle=none;startArrow=none;startFill=0;endArrow=classic;endFill=1;curved=0;" edge="1" parent="1" source="1762" target="RJBb2I7nrMehmGzAcUSe-1787">
          <mxGeometry relative="1" as="geometry" />
        </mxCell>
        <mxCell id="1762" value="Внутренние документы и оценки недвижимости" style="rounded=1;whiteSpace=wrap;html=1;shadow=0;labelBackgroundColor=none;strokeColor=none;strokeWidth=3;fillColor=#64bbe2;fontFamily=Helvetica;fontSize=14;fontColor=#FFFFFF;align=center;spacing=5;arcSize=7;perimeterSpacing=2;" parent="1" vertex="1">
          <mxGeometry x="640" y="700" width="150" height="60" as="geometry" />
        </mxCell>
        <mxCell id="RJBb2I7nrMehmGzAcUSe-1789" style="edgeStyle=orthogonalEdgeStyle;rounded=1;orthogonalLoop=1;jettySize=auto;html=1;entryX=0.25;entryY=0;entryDx=0;entryDy=0;shadow=0;strokeColor=#1699D3;strokeWidth=3;align=center;verticalAlign=middle;spacing=5;fontFamily=Helvetica;fontSize=14;fontColor=#FFFFFF;labelBackgroundColor=none;jumpStyle=none;startArrow=none;startFill=0;endArrow=classic;endFill=1;curved=0;" edge="1" parent="1" source="1763" target="RJBb2I7nrMehmGzAcUSe-1787">
          <mxGeometry relative="1" as="geometry" />
        </mxCell>
        <mxCell id="1763" value="Данные о бизнес-процессах" style="rounded=1;whiteSpace=wrap;html=1;shadow=0;labelBackgroundColor=none;strokeColor=none;strokeWidth=3;fillColor=#64bbe2;fontFamily=Helvetica;fontSize=14;fontColor=#FFFFFF;align=center;spacing=5;arcSize=7;perimeterSpacing=2;" parent="1" vertex="1">
          <mxGeometry x="330" y="700" width="150" height="60" as="geometry" />
        </mxCell>
        <mxCell id="1764" value="Конфиденциальные данные" style="rounded=1;whiteSpace=wrap;html=1;shadow=0;labelBackgroundColor=none;strokeColor=none;strokeWidth=3;fillColor=#F08705;fontFamily=Helvetica;fontSize=14;fontColor=#FFFFFF;align=center;spacing=5;fontStyle=1;arcSize=7;perimeterSpacing=2;" parent="1" vertex="1">
          <mxGeometry x="495" y="200.5" width="150" height="60" as="geometry" />
        </mxCell>
        <mxCell id="RJBb2I7nrMehmGzAcUSe-1783" style="edgeStyle=orthogonalEdgeStyle;rounded=1;orthogonalLoop=1;jettySize=auto;html=1;entryX=1;entryY=0.5;entryDx=0;entryDy=0;shadow=0;strokeColor=#F08705;strokeWidth=3;align=center;verticalAlign=middle;spacing=5;fontFamily=Helvetica;fontSize=14;fontColor=#FFFFFF;labelBackgroundColor=none;jumpStyle=none;startArrow=none;startFill=0;endArrow=classic;endFill=1;curved=0;" edge="1" parent="1" source="1767" target="RJBb2I7nrMehmGzAcUSe-1779">
          <mxGeometry relative="1" as="geometry">
            <Array as="points">
              <mxPoint x="787" y="-140" />
            </Array>
          </mxGeometry>
        </mxCell>
        <mxCell id="1767" value="Финансовая отчётность, расчёты с партнёрами" style="rounded=1;whiteSpace=wrap;html=1;shadow=0;labelBackgroundColor=none;strokeColor=none;strokeWidth=3;fillColor=#f5af58;fontFamily=Helvetica;fontSize=14;fontColor=#FFFFFF;align=center;spacing=5;arcSize=7;perimeterSpacing=2;" parent="1" vertex="1">
          <mxGeometry x="712" y="50.5" width="150" height="60" as="geometry" />
        </mxCell>
        <mxCell id="1768" value="" style="edgeStyle=none;rounded=0;jumpStyle=none;html=1;shadow=0;labelBackgroundColor=none;startArrow=none;startFill=0;endArrow=classic;endFill=1;jettySize=auto;orthogonalLoop=1;strokeColor=#F08705;strokeWidth=3;fontFamily=Helvetica;fontSize=14;fontColor=#FFFFFF;spacing=5;" parent="1" source="1764" target="1767" edge="1">
          <mxGeometry relative="1" as="geometry" />
        </mxCell>
        <mxCell id="RJBb2I7nrMehmGzAcUSe-1780" value="" style="edgeStyle=orthogonalEdgeStyle;rounded=1;orthogonalLoop=1;jettySize=auto;html=1;shadow=0;strokeColor=#F08705;strokeWidth=3;align=center;verticalAlign=middle;spacing=5;fontFamily=Helvetica;fontSize=14;fontColor=#FFFFFF;labelBackgroundColor=none;jumpStyle=none;startArrow=none;startFill=0;endArrow=classic;endFill=1;entryX=0;entryY=0.5;entryDx=0;entryDy=0;curved=0;" edge="1" parent="1" source="1769" target="RJBb2I7nrMehmGzAcUSe-1779">
          <mxGeometry relative="1" as="geometry">
            <Array as="points">
              <mxPoint x="382" y="-140" />
            </Array>
          </mxGeometry>
        </mxCell>
        <mxCell id="1769" value="Персональные данные клиентов" style="rounded=1;whiteSpace=wrap;html=1;shadow=0;labelBackgroundColor=none;strokeColor=none;strokeWidth=3;fillColor=#f5af58;fontFamily=Helvetica;fontSize=14;fontColor=#FFFFFF;align=center;spacing=5;arcSize=7;perimeterSpacing=2;" parent="1" vertex="1">
          <mxGeometry x="307" y="50.5" width="150" height="60" as="geometry" />
        </mxCell>
        <mxCell id="1770" value="" style="edgeStyle=none;rounded=0;jumpStyle=none;html=1;shadow=0;labelBackgroundColor=none;startArrow=none;startFill=0;endArrow=classic;endFill=1;jettySize=auto;orthogonalLoop=1;strokeColor=#F08705;strokeWidth=3;fontFamily=Helvetica;fontSize=14;fontColor=#FFFFFF;spacing=5;" parent="1" source="1764" target="1769" edge="1">
          <mxGeometry relative="1" as="geometry" />
        </mxCell>
        <mxCell id="1771" value="Публичные данные" style="rounded=1;whiteSpace=wrap;html=1;shadow=0;labelBackgroundColor=none;strokeColor=none;strokeWidth=3;fillColor=#12aab5;fontFamily=Helvetica;fontSize=14;fontColor=#FFFFFF;align=center;spacing=5;fontStyle=1;arcSize=7;perimeterSpacing=2;" parent="1" vertex="1">
          <mxGeometry x="795" y="385.4999999999999" width="150" height="60" as="geometry" />
        </mxCell>
        <mxCell id="RJBb2I7nrMehmGzAcUSe-1786" style="edgeStyle=orthogonalEdgeStyle;rounded=1;orthogonalLoop=1;jettySize=auto;html=1;entryX=0;entryY=0.75;entryDx=0;entryDy=0;shadow=0;strokeColor=#12AAB5;strokeWidth=3;align=center;verticalAlign=middle;spacing=5;fontFamily=Helvetica;fontSize=14;fontColor=#FFFFFF;fontStyle=1;labelBackgroundColor=none;jumpStyle=none;startArrow=none;startFill=0;endArrow=classic;fillColor=#b0e3e6;" edge="1" parent="1" source="1774" target="RJBb2I7nrMehmGzAcUSe-1784">
          <mxGeometry relative="1" as="geometry" />
        </mxCell>
        <mxCell id="1774" value="Рекламные материалы" style="rounded=1;whiteSpace=wrap;html=1;shadow=0;labelBackgroundColor=none;strokeColor=none;strokeWidth=3;fillColor=#61c6ce;fontFamily=Helvetica;fontSize=14;fontColor=#FFFFFF;align=center;spacing=5;fontStyle=0;arcSize=7;perimeterSpacing=2;" parent="1" vertex="1">
          <mxGeometry x="1005" y="434.5" width="150" height="60" as="geometry" />
        </mxCell>
        <mxCell id="1775" value="" style="edgeStyle=none;rounded=1;jumpStyle=none;html=1;shadow=0;labelBackgroundColor=none;startArrow=none;startFill=0;jettySize=auto;orthogonalLoop=1;strokeColor=#12AAB5;strokeWidth=3;fontFamily=Helvetica;fontSize=14;fontColor=#FFFFFF;spacing=5;fontStyle=1;fillColor=#b0e3e6;" parent="1" source="1771" target="1774" edge="1">
          <mxGeometry relative="1" as="geometry" />
        </mxCell>
        <mxCell id="RJBb2I7nrMehmGzAcUSe-1785" style="edgeStyle=orthogonalEdgeStyle;rounded=1;orthogonalLoop=1;jettySize=auto;html=1;entryX=0.005;entryY=0.224;entryDx=0;entryDy=0;shadow=0;strokeColor=#12AAB5;strokeWidth=3;align=center;verticalAlign=middle;spacing=5;fontFamily=Helvetica;fontSize=14;fontColor=#FFFFFF;fontStyle=1;labelBackgroundColor=none;jumpStyle=none;startArrow=none;startFill=0;endArrow=classic;fillColor=#b0e3e6;entryPerimeter=0;" edge="1" parent="1" target="RJBb2I7nrMehmGzAcUSe-1784">
          <mxGeometry relative="1" as="geometry">
            <mxPoint x="1150" y="318.1400000000002" as="sourcePoint" />
            <mxPoint x="1241" y="314.5019999999996" as="targetPoint" />
            <Array as="points">
              <mxPoint x="1241" y="318" />
              <mxPoint x="1241" y="319" />
            </Array>
          </mxGeometry>
        </mxCell>
        <mxCell id="1776" value="Публичная информация о компании" style="rounded=1;whiteSpace=wrap;html=1;shadow=0;labelBackgroundColor=none;strokeColor=none;strokeWidth=3;fillColor=#61c6ce;fontFamily=Helvetica;fontSize=14;fontColor=#FFFFFF;align=center;spacing=5;fontStyle=0;arcSize=7;perimeterSpacing=2;" parent="1" vertex="1">
          <mxGeometry x="1005" y="290" width="150" height="60" as="geometry" />
        </mxCell>
        <mxCell id="1777" value="" style="edgeStyle=none;rounded=1;jumpStyle=none;html=1;shadow=0;labelBackgroundColor=none;startArrow=none;startFill=0;jettySize=auto;orthogonalLoop=1;strokeColor=#12AAB5;strokeWidth=3;fontFamily=Helvetica;fontSize=14;fontColor=#FFFFFF;spacing=5;fontStyle=1;fillColor=#b0e3e6;" parent="1" source="1771" target="1776" edge="1">
          <mxGeometry relative="1" as="geometry" />
        </mxCell>
        <mxCell id="RJBb2I7nrMehmGzAcUSe-1779" value="&lt;div&gt;Оценка рисков данных:&lt;/div&gt;&lt;div&gt;&lt;br&gt;&lt;/div&gt;Утечка - критический&lt;div&gt;Потеря - критический&lt;/div&gt;&lt;div&gt;Искажение - критический&lt;/div&gt;&lt;div&gt;Некачественные - значительный&lt;/div&gt;&lt;div&gt;Обесценивание -&amp;nbsp; значительный&lt;/div&gt;&lt;div&gt;&lt;br&gt;&lt;/div&gt;&lt;div&gt;Уровни критичности связаны с фундаментальностью данных, утрата доверия клиентов обрушит бизнес. Устаревание данных о клиентах и некачественный сбор (например, ошибки - опечатки) также важны, но не остановят бизнес-процессы. Для финансовой отчётности также критичны первые 3 риска.&lt;/div&gt;" style="rounded=1;whiteSpace=wrap;html=1;shadow=0;labelBackgroundColor=none;strokeColor=none;strokeWidth=3;fillColor=#f5af58;fontFamily=Helvetica;fontSize=14;fontColor=#FFFFFF;align=left;spacing=5;arcSize=7;perimeterSpacing=2;verticalAlign=top;" vertex="1" parent="1">
          <mxGeometry x="457" y="-300" width="255" height="320" as="geometry" />
        </mxCell>
        <mxCell id="RJBb2I7nrMehmGzAcUSe-1784" value="&lt;div&gt;Оценка рисков данных:&lt;/div&gt;&lt;div&gt;&lt;br&gt;&lt;/div&gt;Утечка - незначительный&lt;div&gt;Потеря -&amp;nbsp;&lt;span style=&quot;background-color: initial;&quot;&gt;незначительный&lt;/span&gt;&lt;/div&gt;&lt;div&gt;Искажение -&amp;nbsp;&lt;span style=&quot;background-color: initial;&quot;&gt;значительный&lt;/span&gt;&lt;/div&gt;&lt;div&gt;Некачественные -&amp;nbsp;&lt;span style=&quot;background-color: initial;&quot;&gt;незначительный&lt;/span&gt;&lt;/div&gt;&lt;div&gt;Обесценивание -&amp;nbsp;&amp;nbsp;&lt;span style=&quot;background-color: initial;&quot;&gt;незначительный&lt;/span&gt;&lt;/div&gt;&lt;div&gt;&lt;br&gt;&lt;/div&gt;&lt;div&gt;В целом категория данных не критичная для компании, она изначально нацелена на публичность и доступность. Тем не менее риск искажения существует, что может негативно сказаться на бизнес компании.&lt;/div&gt;" style="rounded=1;whiteSpace=wrap;html=1;shadow=0;labelBackgroundColor=none;strokeColor=none;strokeWidth=3;fillColor=#61c6ce;fontFamily=Helvetica;fontSize=14;fontColor=#FFFFFF;align=left;spacing=5;arcSize=7;perimeterSpacing=2;verticalAlign=top;fontStyle=0;" vertex="1" parent="1">
          <mxGeometry x="1250" y="260" width="255" height="270" as="geometry" />
        </mxCell>
        <mxCell id="RJBb2I7nrMehmGzAcUSe-1787" value="&lt;div&gt;Оценка рисков данных:&lt;/div&gt;&lt;div&gt;&lt;br&gt;&lt;/div&gt;Утечка - значительный&lt;div&gt;Потеря - критический&lt;/div&gt;&lt;div&gt;Искажение - значительный&lt;/div&gt;&lt;div&gt;Некачественные - значительный&lt;/div&gt;&lt;div&gt;Обесценивание -&amp;nbsp; незначительный&lt;/div&gt;&lt;div&gt;&lt;br&gt;&lt;/div&gt;&lt;div&gt;Основной риск - потеря данных, даже частичная может привести к простоям в бизнес-процессах и деятельности компании. Остальные риски также важны, но не приведут к полной остановке работы компании.&lt;/div&gt;" style="rounded=1;whiteSpace=wrap;html=1;shadow=0;labelBackgroundColor=none;strokeColor=none;strokeWidth=3;fillColor=#64bbe2;fontFamily=Helvetica;fontSize=14;fontColor=#FFFFFF;align=left;spacing=5;arcSize=7;perimeterSpacing=2;verticalAlign=top;" vertex="1" parent="1">
          <mxGeometry x="442.5" y="840" width="255" height="320" as="geometry" />
        </mxCell>
        <mxCell id="RJBb2I7nrMehmGzAcUSe-1790" value="&lt;div&gt;Оценка рисков данных:&lt;/div&gt;&lt;div&gt;&lt;br&gt;&lt;/div&gt;Утечка - критический&lt;div&gt;Потеря - критический&lt;/div&gt;&lt;div&gt;Искажение - критический&lt;/div&gt;&lt;div&gt;Некачественные -&amp;nbsp;&lt;span style=&quot;background-color: initial;&quot;&gt;критический&lt;/span&gt;&lt;/div&gt;&lt;div&gt;Обесценивание -&amp;nbsp;&amp;nbsp;&lt;span style=&quot;background-color: initial;&quot;&gt;критический&lt;/span&gt;&lt;/div&gt;&lt;div&gt;&lt;br&gt;&lt;/div&gt;&lt;div&gt;Все три категории данных критичны ко всем рискам. Утечка, потеря или искажение стратегии развития и конкуретных преимуществ напрямую влияют на жизнеспособность компании в конкретной среде. Устаревание или некачественные данные также могут влиять критичнски на принятие ошибочных решений.&lt;/div&gt;&lt;div&gt;&lt;br&gt;&lt;/div&gt;&lt;div&gt;Ключи шифрования и реквизиты напрямую связаны с работой всех систем компании.&lt;/div&gt;&lt;div&gt;&lt;br&gt;&lt;/div&gt;" style="rounded=1;whiteSpace=wrap;html=1;shadow=0;labelBackgroundColor=none;strokeColor=none;strokeWidth=3;fillColor=#f08e81;fontFamily=Helvetica;fontSize=14;fontColor=#FFFFFF;align=left;spacing=5;arcSize=7;perimeterSpacing=2;verticalAlign=top;fontStyle=0;" vertex="1" parent="1">
          <mxGeometry x="-350" y="220" width="255" height="394.5" as="geometry" />
        </mxCell>
      </root>
    </mxGraphModel>
  </diagram>
</mxfile>
